<svg width="28" height="25" viewBox="0 0 28 25" fill="none" xmlns="http://www.w3.org/2000/svg">
<path fill-rule="evenodd" clip-rule="evenodd" d="M0.91336 4.28654e-07C0.408911 4.28654e-07 0 0.409498 0 0.914636C0 1.41977 0.408911 1.82927 0.91336 1.82927H4.4336L7.57328 16.6635C7.6975 17.2219 8.06296 17.6867 8.5247 17.6829H23.7474C24.2299 17.6897 24.6737 17.2516 24.6737 16.7683C24.6737 16.285 24.2299 15.8468 23.7474 15.8537H9.2668L8.87671 14.0244H24.9652C25.3741 14.0214 25.7605 13.7094 25.85 13.3099L27.9812 4.1635C28.0999 3.63268 27.6396 3.05269 27.0964 3.04879H6.56478L6.07004 0.724087C5.98361 0.317958 5.59037 -0.000426401 5.17571 4.28654e-07H0.91336ZM6.94534 4.87806H25.9452L24.2421 12.1951H8.49614L6.94534 4.87806ZM11.8737 18.9024C10.2031 18.9024 8.82915 20.2782 8.82915 21.9512C8.82915 23.6242 10.2031 25 11.8737 25C13.5443 25 14.9182 23.6242 14.9182 21.9512C14.9182 20.2783 13.5443 18.9024 11.8737 18.9024ZM20.3984 18.9024C18.7278 18.9024 17.3538 20.2782 17.3538 21.9512C17.3538 23.6242 18.7278 25 20.3984 25C22.069 25 23.4429 23.6242 23.4429 21.9512C23.4429 20.2783 22.069 18.9024 20.3984 18.9024ZM11.8737 20.7317C12.5571 20.7317 13.0915 21.2669 13.0915 21.9512C13.0915 22.6355 12.5571 23.1707 11.8737 23.1707C11.1903 23.1707 10.6559 22.6355 10.6559 21.9512C10.6559 21.2669 11.1903 20.7317 11.8737 20.7317ZM20.3984 20.7317C21.0818 20.7317 21.6162 21.2669 21.6162 21.9512C21.6162 22.6355 21.0818 23.1707 20.3984 23.1707C19.715 23.1707 19.1806 22.6355 19.1806 21.9512C19.1806 21.2669 19.715 20.7317 20.3984 20.7317Z" fill="#FDCA38"/>
</svg>
