<svg width="24" height="24" viewBox="0 0 24 24" fill="none" xmlns="http://www.w3.org/2000/svg">
<path fill-rule="evenodd" clip-rule="evenodd" d="M10.4943 21C5.48517 20.997 1.17573 17.456 0.201522 12.5425C-0.772686 7.62906 1.85968 2.71166 6.48871 0.797725C11.1177 -1.11621 16.4541 0.506396 19.2343 4.67319C22.0144 8.83999 21.4639 14.3904 17.9194 17.9299C15.9514 19.9003 13.2792 21.0052 10.4943 21ZM10.4943 2.10937C6.48696 2.11102 3.0389 4.94326 2.25887 8.87394C1.47885 12.8046 3.58412 16.7389 7.28713 18.2707C10.9901 19.8024 15.2595 18.505 17.4841 15.1718C19.7087 11.8387 19.2689 7.39827 16.4338 4.56624C14.8597 2.98964 12.7221 2.10544 10.4943 2.10937Z" fill="#FDCA38"/>
<path fill-rule="evenodd" clip-rule="evenodd" d="M10.4943 21C5.48517 20.997 1.17573 17.456 0.201522 12.5425C-0.772686 7.62906 1.85968 2.71166 6.48871 0.797725C11.1177 -1.11621 16.4541 0.506396 19.2343 4.67319C22.0144 8.83999 21.4639 14.3904 17.9194 17.9299C15.9514 19.9003 13.2792 21.0052 10.4943 21ZM10.4943 2.10937C6.48696 2.11102 3.0389 4.94326 2.25887 8.87394C1.47885 12.8046 3.58412 16.7389 7.28713 18.2707C10.9901 19.8024 15.2595 18.505 17.4841 15.1718C19.7087 11.8387 19.2689 7.39827 16.4338 4.56624C14.8597 2.98964 12.7221 2.10544 10.4943 2.10937Z" fill="#FDCA38"/>
<path fill-rule="evenodd" clip-rule="evenodd" d="M16 17.6001L17.5999 16L24 22.3999L22.4001 24L16 17.6001Z" fill="#FDCA38"/>
</svg>
